<?xml version="1.0" encoding="UTF-8"?>
<svg width="476px" height="710px" viewBox="0 0 476 710" version="1.1" xmlns="http://www.w3.org/2000/svg" xmlns:xlink="http://www.w3.org/1999/xlink">
    <title>GithubHeader</title>
    <defs>
        <radialGradient cx="50%" cy="100%" fx="50%" fy="100%" r="98.4414062%" id="radialGradient-1">
            <stop stop-color="#219764" offset="0%"></stop>
            <stop stop-color="#1A663F" offset="100%"></stop>
        </radialGradient>
    </defs>
    <g id="GithubHeader" stroke="none" stroke-width="1" fill="none" fill-rule="evenodd">
        <rect id="Rectangle" fill="#FFFFFF" x="0" y="0" width="476" height="710" rx="120"></rect>
        <g id="Contents" transform="translate(30.000000, 29.000000)">
            <path d="M94.069,557.936 C98.905,557.936 103.22425,557.20475 107.02675,555.74225 C110.82925,554.27975 114.02725,552.27125 116.62075,549.71675 C119.21425,547.16225 121.1935,544.169 122.5585,540.737 C123.9235,537.305 124.606,533.6195 124.606,529.6805 C124.606,526.1315 124.06,523.09925 122.968,520.58375 C121.876,518.06825 120.44275,515.933 118.66825,514.178 C116.89375,512.423 114.86575,510.98 112.58425,509.849 C110.30275,508.718 107.9725,507.73325 105.5935,506.89475 C103.2145,506.05625 100.88425,505.29575 98.60275,504.61325 C96.32125,503.93075 94.29325,503.18 92.51875,502.361 C90.74425,501.542 89.311,500.567 88.219,499.436 C87.127,498.305 86.581,496.8815 86.581,495.1655 C86.581,492.4745 87.48775,490.33925 89.30125,488.75975 C91.11475,487.18025 93.874,486.3905 97.579,486.3905 C99.724,486.3905 101.635,486.67325 103.312,487.23875 C104.989,487.80425 106.48075,488.438 107.78725,489.14 C109.09375,489.842 110.26375,490.47575 111.29725,491.04125 C112.33075,491.60675 113.296,491.8895 114.193,491.8895 C115.207,491.8895 116.03575,491.6555 116.67925,491.1875 C117.32275,490.7195 117.937,490.0175 118.522,489.0815 L118.522,489.0815 L123.436,479.897 C121.915,478.493 120.18925,477.23525 118.25875,476.12375 C116.32825,475.01225 114.2515,474.05675 112.0285,473.25725 C109.8055,472.45775 107.45575,471.85325 104.97925,471.44375 C102.50275,471.03425 99.958,470.8295 97.345,470.8295 C92.665,470.8295 88.5115,471.54125 84.8845,472.96475 C81.2575,474.38825 78.196,476.2895 75.7,478.6685 C73.204,481.0475 71.3125,483.758 70.0255,486.8 C68.7385,489.842 68.095,492.962 68.095,496.16 C68.095,500.138 68.641,503.48225 69.733,506.19275 C70.825,508.90325 72.25825,511.16525 74.03275,512.97875 C75.80725,514.79225 77.8255,516.25475 80.0875,517.36625 C82.3495,518.47775 84.67,519.41375 87.049,520.17425 C89.428,520.93475 91.7485,521.627 94.0105,522.251 C96.2725,522.875 98.29075,523.5965 100.06525,524.4155 C101.83975,525.2345 103.273,526.268 104.365,527.516 C105.457,528.764 106.003,530.3825 106.003,532.3715 C106.003,535.8035 105.0085,538.30925 103.0195,539.88875 C101.0305,541.46825 98.242,542.258 94.654,542.258 C92.002,542.258 89.701,541.8875 87.751,541.1465 C85.801,540.4055 84.07525,539.5865 82.57375,538.6895 C81.07225,537.7925 79.72675,536.9735 78.53725,536.2325 C77.34775,535.4915 76.168,535.121 74.998,535.121 C74.101,535.121 73.2625,535.3355 72.4825,535.7645 C71.7025,536.1935 71.098,536.759 70.669,537.461 L70.669,537.461 L64.819,546.704 C66.496,548.381 68.4655,549.902 70.7275,551.267 C72.9895,552.632 75.4075,553.81175 77.9815,554.80625 C80.5555,555.80075 83.21725,556.571 85.96675,557.117 C88.71625,557.663 91.417,557.936 94.069,557.936 Z M155.962,557.936 C158.029,557.936 160.1545,557.78975 162.3385,557.49725 C164.5225,557.20475 166.69675,556.67825 168.86125,555.91775 C171.02575,555.15725 173.1415,554.10425 175.2085,552.75875 C177.2755,551.41325 179.245,549.668 181.117,547.523 L181.117,547.523 L175.852,541.0295 C175.111,539.9765 174.019,539.45 172.576,539.45 C171.484,539.45 170.57725,539.723 169.85575,540.269 C169.13425,540.815 168.3445,541.40975 167.4865,542.05325 C166.6285,542.69675 165.58525,543.28175 164.35675,543.80825 C163.12825,544.33475 161.461,544.598 159.355,544.598 C155.416,544.598 152.32525,543.038 150.08275,539.918 C147.84025,536.798 146.719,532.3325 146.719,526.5215 C146.719,523.7525 146.9725,521.26625 147.4795,519.06275 C147.9865,516.85925 148.7665,514.997 149.8195,513.476 C150.8725,511.955 152.20825,510.785 153.82675,509.966 C155.44525,509.147 157.366,508.7375 159.589,508.7375 C161.383,508.7375 162.8845,508.952 164.0935,509.381 C165.3025,509.81 166.3555,510.28775 167.2525,510.81425 C168.1495,511.34075 168.95875,511.8185 169.68025,512.2475 C170.40175,512.6765 171.211,512.891 172.108,512.891 C173.044,512.891 173.7655,512.696 174.2725,512.306 C174.7795,511.916 175.306,511.3895 175.852,510.7265 L175.852,510.7265 L180.649,504.35 C177.763,501.425 174.526,499.202 170.938,497.681 C167.35,496.16 163.177,495.3995 158.419,495.3995 C153.466,495.3995 149.10775,496.199 145.34425,497.798 C141.58075,499.397 138.42175,501.59075 135.86725,504.37925 C133.31275,507.16775 131.38225,510.46325 130.07575,514.26575 C128.76925,518.06825 128.116,522.1535 128.116,526.5215 C128.116,531.5135 128.86675,535.9595 130.36825,539.8595 C131.86975,543.7595 133.89775,547.04525 136.45225,549.71675 C139.00675,552.38825 141.97075,554.426 145.34425,555.83 C148.71775,557.234 152.257,557.936 155.962,557.936 Z M204.751,557 L204.751,519.794 C207.481,514.724 211.225,512.189 215.983,512.189 C217.348,512.189 218.479,512.27675 219.376,512.45225 C220.273,512.62775 221.053,512.7155 221.716,512.7155 C222.496,512.7155 223.12,512.54975 223.588,512.21825 C224.056,511.88675 224.368,511.3115 224.524,510.4925 L224.524,510.4925 L226.864,497.1545 C225.187,495.8285 222.964,495.1655 220.195,495.1655 C216.919,495.1655 213.8965,496.16 211.1275,498.149 C208.3585,500.138 205.8625,502.8485 203.6395,506.2805 L203.6395,506.2805 L202.645,500.606 C202.489,499.826 202.30375,499.163 202.08925,498.617 C201.87475,498.071 201.56275,497.63225 201.15325,497.30075 C200.74375,496.96925 200.23675,496.7255 199.63225,496.5695 C199.02775,496.4135 198.277,496.3355 197.38,496.3355 L197.38,496.3355 L186.616,496.3355 L186.616,557 L204.751,557 Z M259.624,557.936 C264.226,557.936 268.4185,557.20475 272.2015,555.74225 C275.9845,554.27975 279.23125,552.19325 281.94175,549.48275 C284.65225,546.77225 286.75825,543.47675 288.25975,539.59625 C289.76125,535.71575 290.512,531.3575 290.512,526.5215 C290.512,521.7245 289.76125,517.40525 288.25975,513.56375 C286.75825,509.72225 284.65225,506.456 281.94175,503.765 C279.23125,501.074 275.9845,499.007 272.2015,497.564 C268.4185,496.121 264.226,495.3995 259.624,495.3995 C254.983,495.3995 250.76125,496.121 246.95875,497.564 C243.15625,499.007 239.88025,501.074 237.13075,503.765 C234.38125,506.456 232.25575,509.72225 230.75425,513.56375 C229.25275,517.40525 228.502,521.7245 228.502,526.5215 C228.502,531.3575 229.25275,535.71575 230.75425,539.59625 C232.25575,543.47675 234.38125,546.77225 237.13075,549.48275 C239.88025,552.19325 243.15625,554.27975 246.95875,555.74225 C250.76125,557.20475 254.983,557.936 259.624,557.936 Z M259.624,544.481 C255.334,544.481 252.1945,543.00875 250.2055,540.06425 C248.2165,537.11975 247.222,532.6445 247.222,526.6385 C247.222,520.6325 248.2165,516.167 250.2055,513.242 C252.1945,510.317 255.334,508.8545 259.624,508.8545 C263.797,508.8545 266.86825,510.317 268.83775,513.242 C270.80725,516.167 271.792,520.6325 271.792,526.6385 C271.792,532.6445 270.80725,537.11975 268.83775,540.06425 C266.86825,543.00875 263.797,544.481 259.624,544.481 Z M316.837,557 L316.837,469.4255 L298.702,469.4255 L298.702,557 L316.837,557 Z M347.842,557 L347.842,469.4255 L329.707,469.4255 L329.707,557 L347.842,557 Z" id="Scroll" fill="#000000" fill-rule="nonzero"></path>
            <path d="M67.544,621 C67.9131667,621 68.2232667,620.896633 68.4743,620.6899 C68.7253333,620.483167 68.9025333,620.2469 69.0059,619.9811 L69.0059,619.9811 L71.974,612.3172 L86.21645,612.3172 L89.18455,619.9811 C89.3026833,620.276433 89.4798833,620.520083 89.71615,620.71205 C89.9524167,620.904017 90.2625167,621 90.64645,621 L90.64645,621 L93.96895,621 L81.277,589.25905 L76.91345,589.25905 L64.2215,621 L67.544,621 Z M85.02035,609.2162 L73.1701,609.2162 L78.15385,596.3249 C78.3015167,595.940967 78.452875,595.494275 78.607925,594.984825 C78.762975,594.475375 78.9217167,593.917933 79.08415,593.3125 C79.39425,594.5086 79.7117333,595.50535 80.0366,596.30275 L80.0366,596.30275 L85.02035,609.2162 Z M114.96715,621 L123.0519,596.79005 C123.125733,596.56855 123.195875,596.321208 123.262325,596.048025 C123.328775,595.774842 123.398917,595.490583 123.47275,595.19525 C123.60565,595.800683 123.753317,596.332283 123.91575,596.79005 L123.91575,596.79005 L131.9562,621 L135.8103,621 L145.71135,589.25905 L142.3667,589.25905 C141.997533,589.25905 141.683742,589.362417 141.425325,589.56915 C141.166908,589.775883 141.000783,590.01215 140.92695,590.27795 L140.92695,590.27795 L134.3484,612.33935 C134.230267,612.723283 134.134283,613.13675 134.06045,613.57975 C133.986617,614.02275 133.9054,614.4879 133.8168,614.9752 C133.610067,613.985833 133.3738,613.107217 133.108,612.33935 L133.108,612.33935 L125.68775,590.27795 C125.584383,589.982617 125.410875,589.738967 125.167225,589.547 C124.923575,589.355033 124.609783,589.25905 124.22585,589.25905 L124.22585,589.25905 L122.98545,589.25905 C122.616283,589.25905 122.302492,589.366108 122.044075,589.580225 C121.785658,589.794342 121.61215,590.026917 121.52355,590.27795 L121.52355,590.27795 L114.059,612.33935 C113.9261,612.723283 113.807967,613.147825 113.7046,613.612975 C113.601233,614.078125 113.497867,614.561733 113.3945,615.0638 C113.3059,614.561733 113.213608,614.081817 113.117625,613.62405 C113.021642,613.166283 112.914583,612.73805 112.79645,612.33935 L112.79645,612.33935 L106.24005,590.27795 C106.15145,589.982617 105.981633,589.738967 105.7306,589.547 C105.479567,589.355033 105.162083,589.25905 104.77815,589.25905 L104.77815,589.25905 L101.212,589.25905 L111.11305,621 L114.96715,621 Z M151.51465,621.3544 C152.371117,621.3544 153.150058,621.280567 153.851475,621.1329 C154.552892,620.985233 155.2137,620.767425 155.8339,620.479475 C156.4541,620.191525 157.044767,619.837125 157.6059,619.416275 C158.167033,618.995425 158.742933,618.5192 159.3336,617.9876 L159.3336,617.9876 L159.7766,620.0697 C159.850433,620.453633 160.005483,620.704667 160.24175,620.8228 C160.478017,620.940933 160.788117,621 161.17205,621 L161.17205,621 L162.9219,621 L162.9219,606.6468 C162.9219,605.391633 162.752083,604.239833 162.41245,603.1914 C162.072817,602.142967 161.57075,601.249583 160.90625,600.51125 C160.24175,599.772917 159.4222,599.197017 158.4476,598.78355 C157.473,598.370083 156.358117,598.16335 155.10295,598.16335 C153.360483,598.16335 151.773067,598.458683 150.3407,599.04935 C148.908333,599.640017 147.57195,600.5334 146.33155,601.7295 L146.33155,601.7295 L147.04035,602.99205 C147.158483,603.198783 147.317225,603.372292 147.516575,603.512575 C147.715925,603.652858 147.9485,603.723 148.2143,603.723 C148.553933,603.723 148.897258,603.601175 149.244275,603.357525 C149.591292,603.113875 150.004758,602.840692 150.484675,602.537975 C150.964592,602.235258 151.533108,601.962075 152.190225,601.718425 C152.847342,601.474775 153.655817,601.35295 154.61565,601.35295 C156.07755,601.35295 157.181358,601.799642 157.927075,602.693025 C158.672792,603.586408 159.04565,604.904333 159.04565,606.6468 L159.04565,606.6468 L159.04565,608.39665 C156.505783,608.455717 154.357233,608.688292 152.6,609.094375 C150.842767,609.500458 149.421475,610.020983 148.336125,610.65595 C147.250775,611.290917 146.46445,612.018175 145.97715,612.837725 C145.48985,613.657275 145.2462,614.51005 145.2462,615.39605 C145.2462,616.41495 145.412325,617.297258 145.744575,618.042975 C146.076825,618.788692 146.523517,619.4052 147.08465,619.8925 C147.645783,620.3798 148.306592,620.745275 149.067075,620.988925 C149.827558,621.232575 150.643417,621.3544 151.51465,621.3544 Z M152.6886,618.58565 C152.171767,618.58565 151.69185,618.522892 151.24885,618.397375 C150.80585,618.271858 150.421917,618.072508 150.09705,617.799325 C149.772183,617.526142 149.513767,617.175433 149.3218,616.7472 C149.129833,616.318967 149.03385,615.809517 149.03385,615.21885 C149.03385,614.59865 149.214742,614.037517 149.576525,613.53545 C149.938308,613.033383 150.5179,612.597767 151.3153,612.2286 C152.1127,611.859433 153.146367,611.560408 154.4163,611.331525 C155.686233,611.102642 157.22935,610.958667 159.04565,610.8996 L159.04565,610.8996 L159.04565,615.57325 C158.60265,616.045783 158.148575,616.466633 157.683425,616.8358 C157.218275,617.204967 156.730975,617.518758 156.221525,617.777175 C155.712075,618.035592 155.1694,618.234942 154.5935,618.375225 C154.0176,618.515508 153.382633,618.58565 152.6886,618.58565 Z M172.46855,628.59745 C172.882017,628.59745 173.188425,628.50885 173.387775,628.33165 C173.587125,628.15445 173.75325,627.918183 173.88615,627.62285 L173.88615,627.62285 L186.4009,598.56205 L183.2556,598.56205 C183.004567,598.56205 182.771992,598.639575 182.557875,598.794625 C182.343758,598.949675 182.1924,599.145333 182.1038,599.3816 L182.1038,599.3816 L176.27835,613.49115 C176.14545,613.830783 176.027317,614.163033 175.92395,614.4879 C175.820583,614.812767 175.717217,615.145017 175.61385,615.48465 C175.540017,615.145017 175.455108,614.812767 175.359125,614.4879 C175.263142,614.163033 175.1487,613.838167 175.0158,613.5133 L175.0158,613.5133 L169.01315,599.3816 C168.92455,599.174867 168.784267,598.986592 168.5923,598.816775 C168.400333,598.646958 168.134533,598.56205 167.7949,598.56205 L167.7949,598.56205 L164.3838,598.56205 L173.6425,619.69315 L169.54475,628.59745 L172.46855,628.59745 Z M201.70655,621 L201.70655,607.3556 L214.73075,607.3556 L214.73075,603.8559 L201.70655,603.8559 L201.70655,592.75875 L216.94575,592.75875 L216.94575,589.25905 L197.3873,589.25905 L197.3873,621 L201.70655,621 Z M228.4859,621.3101 C230.125,621.3101 231.605358,621.040608 232.926975,620.501625 C234.248592,619.962642 235.370858,619.191083 236.293775,618.18695 C237.216692,617.182817 237.925492,615.97195 238.420175,614.55435 C238.914858,613.13675 239.1622,611.54195 239.1622,609.76995 C239.1622,608.012717 238.914858,606.421608 238.420175,604.996625 C237.925492,603.571642 237.216692,602.357083 236.293775,601.35295 C235.370858,600.348817 234.248592,599.573567 232.926975,599.0272 C231.605358,598.480833 230.125,598.20765 228.4859,598.20765 C226.8468,598.20765 225.366442,598.480833 224.044825,599.0272 C222.723208,599.573567 221.59725,600.348817 220.66695,601.35295 C219.73665,602.357083 219.020467,603.571642 218.5184,604.996625 C218.016333,606.421608 217.7653,608.012717 217.7653,609.76995 C217.7653,611.54195 218.016333,613.13675 218.5184,614.55435 C219.020467,615.97195 219.73665,617.182817 220.66695,618.18695 C221.59725,619.191083 222.723208,619.962642 224.044825,620.501625 C225.366442,621.040608 226.8468,621.3101 228.4859,621.3101 Z M228.4859,618.23125 C227.363633,618.23125 226.389033,618.039283 225.5621,617.65535 C224.735167,617.271417 224.044825,616.721358 223.491075,616.005175 C222.937325,615.288992 222.523858,614.406683 222.250675,613.35825 C221.977492,612.309817 221.8409,611.1211 221.8409,609.7921 C221.8409,608.4631 221.977492,607.270692 222.250675,606.214875 C222.523858,605.159058 222.937325,604.269367 223.491075,603.5458 C224.044825,602.822233 224.735167,602.268483 225.5621,601.88455 C226.389033,601.500617 227.363633,601.30865 228.4859,601.30865 C230.7009,601.30865 232.354767,602.054367 233.4475,603.5458 C234.540233,605.037233 235.0866,607.119333 235.0866,609.7921 C235.0866,612.4501 234.540233,614.521125 233.4475,616.005175 C232.354767,617.489225 230.7009,618.23125 228.4859,618.23125 Z M247.0919,621 L247.0919,606.71325 C247.7121,605.192283 248.483658,604.0331 249.406575,603.2357 C250.329492,602.4383 251.4776,602.0396 252.8509,602.0396 C253.618767,602.0396 254.216817,602.109742 254.64505,602.250025 C255.073283,602.390308 255.390767,602.46045 255.5975,602.46045 C255.9519,602.46045 256.180783,602.275867 256.28415,601.9067 L256.28415,601.9067 L256.7936,598.96075 C256.365367,598.709717 255.900217,598.514058 255.39815,598.373775 C254.896083,598.233492 254.33495,598.16335 253.71475,598.16335 C252.193783,598.16335 250.868475,598.602658 249.738825,599.481275 C248.609175,600.359892 247.660417,601.581833 246.89255,603.1471 L246.89255,603.1471 L246.62675,599.6474 C246.567683,599.2487 246.456933,598.968133 246.2945,598.8057 C246.132067,598.643267 245.836733,598.56205 245.4085,598.56205 L245.4085,598.56205 L243.1492,598.56205 L243.1492,621 L247.0919,621 Z M267.4256,621 C267.8686,621 268.171317,620.748967 268.33375,620.2469 L268.33375,620.2469 L273.3618,605.052 C273.479933,604.712367 273.575917,604.36535 273.64975,604.01095 C273.723583,603.65655 273.797417,603.309533 273.87125,602.9699 C273.945083,603.309533 274.018917,603.652858 274.09275,603.999875 C274.166583,604.346892 274.262567,604.690217 274.3807,605.02985 L274.3807,605.02985 L279.3423,620.2469 C279.489967,620.748967 279.755767,621 280.1397,621 L280.1397,621 L283.26285,621 L290.52805,598.56205 L287.55995,598.56205 C287.279383,598.56205 287.035733,598.639575 286.829,598.794625 C286.622267,598.949675 286.481983,599.145333 286.40815,599.3816 L286.40815,599.3816 L282.02245,613.8234 C281.88955,614.281167 281.764033,614.77585 281.6459,615.30745 C281.527767,615.83905 281.431783,616.3485 281.35795,616.8358 C281.239817,616.3485 281.117992,615.853817 280.992475,615.35175 C280.866958,614.849683 280.722983,614.340233 280.56055,613.8234 L280.56055,613.8234 L275.9312,599.293 C275.857367,599.0715 275.724467,598.886917 275.5325,598.73925 C275.340533,598.591583 275.096883,598.51775 274.80155,598.51775 L274.80155,598.51775 L273.096,598.51775 C272.815433,598.51775 272.582858,598.591583 272.398275,598.73925 C272.213692,598.886917 272.084483,599.0715 272.01065,599.293 L272.01065,599.293 L267.27055,613.8234 C267.108117,614.355 266.953067,614.868142 266.8054,615.362825 C266.657733,615.857508 266.524833,616.355883 266.4067,616.85795 C266.332867,616.355883 266.244267,615.857508 266.1409,615.362825 C266.037533,614.868142 265.926783,614.355 265.80865,613.8234 L265.80865,613.8234 L261.51155,599.3816 C261.437717,599.1601 261.297433,598.968133 261.0907,598.8057 C260.883967,598.643267 260.618167,598.56205 260.2933,598.56205 L260.2933,598.56205 L257.1923,598.56205 L264.4575,621 L267.4256,621 Z M298.23625,621.3544 C299.092717,621.3544 299.871658,621.280567 300.573075,621.1329 C301.274492,620.985233 301.9353,620.767425 302.5555,620.479475 C303.1757,620.191525 303.766367,619.837125 304.3275,619.416275 C304.888633,618.995425 305.464533,618.5192 306.0552,617.9876 L306.0552,617.9876 L306.4982,620.0697 C306.572033,620.453633 306.727083,620.704667 306.96335,620.8228 C307.199617,620.940933 307.509717,621 307.89365,621 L307.89365,621 L309.6435,621 L309.6435,606.6468 C309.6435,605.391633 309.473683,604.239833 309.13405,603.1914 C308.794417,602.142967 308.29235,601.249583 307.62785,600.51125 C306.96335,599.772917 306.1438,599.197017 305.1692,598.78355 C304.1946,598.370083 303.079717,598.16335 301.82455,598.16335 C300.082083,598.16335 298.494667,598.458683 297.0623,599.04935 C295.629933,599.640017 294.29355,600.5334 293.05315,601.7295 L293.05315,601.7295 L293.76195,602.99205 C293.880083,603.198783 294.038825,603.372292 294.238175,603.512575 C294.437525,603.652858 294.6701,603.723 294.9359,603.723 C295.275533,603.723 295.618858,603.601175 295.965875,603.357525 C296.312892,603.113875 296.726358,602.840692 297.206275,602.537975 C297.686192,602.235258 298.254708,601.962075 298.911825,601.718425 C299.568942,601.474775 300.377417,601.35295 301.33725,601.35295 C302.79915,601.35295 303.902958,601.799642 304.648675,602.693025 C305.394392,603.586408 305.76725,604.904333 305.76725,606.6468 L305.76725,606.6468 L305.76725,608.39665 C303.227383,608.455717 301.078833,608.688292 299.3216,609.094375 C297.564367,609.500458 296.143075,610.020983 295.057725,610.65595 C293.972375,611.290917 293.18605,612.018175 292.69875,612.837725 C292.21145,613.657275 291.9678,614.51005 291.9678,615.39605 C291.9678,616.41495 292.133925,617.297258 292.466175,618.042975 C292.798425,618.788692 293.245117,619.4052 293.80625,619.8925 C294.367383,620.3798 295.028192,620.745275 295.788675,620.988925 C296.549158,621.232575 297.365017,621.3544 298.23625,621.3544 Z M299.4102,618.58565 C298.893367,618.58565 298.41345,618.522892 297.97045,618.397375 C297.52745,618.271858 297.143517,618.072508 296.81865,617.799325 C296.493783,617.526142 296.235367,617.175433 296.0434,616.7472 C295.851433,616.318967 295.75545,615.809517 295.75545,615.21885 C295.75545,614.59865 295.936342,614.037517 296.298125,613.53545 C296.659908,613.033383 297.2395,612.597767 298.0369,612.2286 C298.8343,611.859433 299.867967,611.560408 301.1379,611.331525 C302.407833,611.102642 303.95095,610.958667 305.76725,610.8996 L305.76725,610.8996 L305.76725,615.57325 C305.32425,616.045783 304.870175,616.466633 304.405025,616.8358 C303.939875,617.204967 303.452575,617.518758 302.943125,617.777175 C302.433675,618.035592 301.891,618.234942 301.3151,618.375225 C300.7392,618.515508 300.104233,618.58565 299.4102,618.58565 Z M318.6807,621 L318.6807,606.71325 C319.3009,605.192283 320.072458,604.0331 320.995375,603.2357 C321.918292,602.4383 323.0664,602.0396 324.4397,602.0396 C325.207567,602.0396 325.805617,602.109742 326.23385,602.250025 C326.662083,602.390308 326.979567,602.46045 327.1863,602.46045 C327.5407,602.46045 327.769583,602.275867 327.87295,601.9067 L327.87295,601.9067 L328.3824,598.96075 C327.954167,598.709717 327.489017,598.514058 326.98695,598.373775 C326.484883,598.233492 325.92375,598.16335 325.30355,598.16335 C323.782583,598.16335 322.457275,598.602658 321.327625,599.481275 C320.197975,600.359892 319.249217,601.581833 318.48135,603.1471 L318.48135,603.1471 L318.21555,599.6474 C318.156483,599.2487 318.045733,598.968133 317.8833,598.8057 C317.720867,598.643267 317.425533,598.56205 316.9973,598.56205 L316.9973,598.56205 L314.738,598.56205 L314.738,621 L318.6807,621 Z M338.54925,621.3101 C340.14405,621.3101 341.557958,620.959392 342.790975,620.257975 C344.023992,619.556558 345.120417,618.622567 346.08025,617.456 L346.08025,617.456 L346.43465,620.18045 C346.582317,620.726817 346.936717,621 347.49785,621 L347.49785,621 L349.84575,621 L349.84575,588.37305 L345.90305,588.37305 L345.90305,600.82135 C345.135183,599.97965 344.26395,599.326225 343.28935,598.861075 C342.31475,598.395925 341.1408,598.16335 339.7675,598.16335 C338.246533,598.16335 336.888,598.462375 335.6919,599.060425 C334.4958,599.658475 333.480592,600.481717 332.646275,601.53015 C331.811958,602.578583 331.1733,603.815292 330.7303,605.240275 C330.2873,606.665258 330.0658,608.204683 330.0658,609.85855 C330.0658,611.71915 330.26515,613.365633 330.66385,614.798 C331.06255,616.230367 331.631067,617.426467 332.3694,618.3863 C333.107733,619.346133 334.001117,620.073392 335.04955,620.568075 C336.097983,621.062758 337.26455,621.3101 338.54925,621.3101 Z M339.8561,618.1205 C338.940567,618.1205 338.1284,617.96545 337.4196,617.65535 C336.7108,617.34525 336.11275,616.854258 335.62545,616.182375 C335.13815,615.510492 334.768983,614.654025 334.51795,613.612975 C334.266917,612.571925 334.1414,611.32045 334.1414,609.85855 C334.1414,607.097183 334.702533,604.970783 335.8248,603.47935 C336.947067,601.987917 338.556633,601.2422 340.6535,601.2422 C341.701933,601.2422 342.658075,601.437858 343.521925,601.829175 C344.385775,602.220492 345.179483,602.90345 345.90305,603.87805 L345.90305,603.87805 L345.90305,614.73155 C345.090883,615.809517 344.201192,616.643833 343.233975,617.2345 C342.266758,617.825167 341.1408,618.1205 339.8561,618.1205 Z" id="AWayForward" fill="#000000" fill-rule="nonzero"></path>
            <g id="Icon">
                <rect id="Rectangle" fill="url(#radialGradient-1)" x="0" y="0" width="418" height="418" rx="100"></rect>
                <g id="Group" transform="translate(94.000000, 71.000000)" fill="#FFFFFF" fill-rule="nonzero">
                    <path d="M82.5787464,25.7248046 C77.241502,27.4855738 72.2449327,31.2272084 69.4059729,35.4090354 C66.1127795,40.4712469 66.2263379,39.15067 66.2263379,97.1460066 C66.2263379,149.088699 65.8856627,165.595911 64.9771956,167.026536 C64.1822869,168.237064 62.0246774,166.366247 54.7569403,158.332738 C47.3756448,149.969084 41.1299332,144.906872 35.2248968,142.045622 C25.5724335,137.423603 11.8318681,140.614997 4.90480613,149.088699 C0.0217952639,155.031295 -1.34090544,162.514564 1.38449597,167.466728 C2.81023381,170.04165 20.0744016,192.770506 53.1769993,235.653298 L53.1769999,235.653297 C64.5511299,250.387924 82.1197816,259.009112 100.733747,258.990071 C152.185541,258.937437 179.520041,258.692877 182.737248,258.256392 C193.752412,256.715718 201.587941,249.342497 204.767576,237.787449 C207.606536,227.112786 209.764146,183.973939 208.74212,156.241824 L208.287887,141.715478 L206.470952,137.973843 C204.199784,133.461872 199.884566,129.390093 195.115113,127.29918 C192.162595,125.868555 190.913453,125.758507 185.803325,125.758507 C182.510132,125.758507 179.10338,125.978603 178.308471,126.198699 C176.832212,126.638891 176.605095,126.418795 175.696628,124.327882 C174.333927,121.246536 169.791592,116.514468 166.271281,114.753699 C161.728946,112.552737 156.50526,111.452257 152.417158,111.892449 C150.486665,112.112545 148.215497,112.332641 147.420588,112.442689 C146.285004,112.552737 145.830771,112.112545 144.922304,109.801536 C141.62911,101.437882 132.317322,95.9354778 121.756392,95.9354778 C119.144549,95.9354778 116.305589,96.155574 115.170005,96.4857182 L113.239512,97.0359586 L113.239512,70.6244201 C113.239512,41.5717277 113.012396,39.9210065 109.492085,34.6386988 C107.334476,31.3372565 104.268399,28.9161988 99.6125052,26.8252854 C96.7735454,25.5047084 95.1837279,25.1745642 90.5278339,25.0645161 C87.1210821,25.0645161 84.0550055,25.2846123 82.5787464,25.7248046 Z" id="Path"></path>
                    <path d="M81.8977376,0.780969403 C53.3342885,5.61959369 37.5403814,35.2824643 50.6459639,59.6859607 C54.9024778,67.6802096 54.7904643,67.8905845 55.1265049,52.6383993 C55.4625455,38.0173389 55.7985861,36.1239642 59.2710054,29.9179026 C61.95933,25.0792783 68.3441009,19.3991542 73.8327637,16.769467 C93.8831848,7.30259344 118.078106,17.190217 123.454756,37.0706516 C124.126837,39.5951512 124.350864,43.4870881 124.350864,53.5850866 L124.350864,66.8387097 L126.255094,64.2090226 C130.959662,58.002961 133.76,49.3775872 133.76,41.1729635 C133.76,20.9769664 118.638174,4.14696891 97.3556041,0.570594434 C91.7549278,-0.270905442 87.7224409,-0.165717957 81.8977376,0.780969403 Z" id="Path"></path>
                </g>
            </g>
        </g>
    </g>
</svg>