<svg height="800" viewBox="0 0 800 800" width="800" xmlns="http://www.w3.org/2000/svg" xmlns:xlink="http://www.w3.org/1999/xlink"><radialGradient id="a" cx="50%" cy="100%" r="98.441406%"><stop offset="0" stop-color="#219764"/><stop offset="1" stop-color="#1a663f"/></radialGradient><g fill="none" fill-rule="evenodd"><rect fill="url(#a)" height="800" rx="100" width="800"/><g fill="#fff" fill-rule="nonzero" transform="translate(184 136)"><path d="m158.045448 49.2644906c-10.214822 3.3719751-19.777634 10.5374221-25.21105 18.5458629-6.302763 9.6944283-6.085426 7.165447-6.085426 118.2298755 0 99.473264-.65201 131.08553-2.390703 133.82526-1.521356 2.318233-5.650752-1.264491-19.560297-16.649127-14.1268814-16.016881-26.0803964-25.71131-37.3819015-31.190769-18.473614-8.851435-44.771347-2.73973-58.02888174 13.4879-9.34547534 11.380416-11.95351497 25.71131-6.73743571 35.19499 2.95662655 5.343048 41.50194405 55.99963 115.63595195 151.969747l.000001-.000001c11.365952 14.713785 28.91095 23.32713 47.503429 23.320805 115.933581-.039444 177.249323-.513806 183.947225-1.423087 21.081654-2.950478 36.077882-17.070624 42.163308-39.19921 5.433416-20.442599 9.562812-103.055988 7.606782-156.164595l-.869346-27.818794-3.477387-7.165447c-4.346732-8.640686-12.605525-16.438379-21.733663-20.442599-5.650753-2.73973-8.041456-2.950478-17.821604-2.950478-6.302763 0-12.822862.421497-14.344218.842993-2.825377.842994-3.26005.421497-4.998743-3.582723-2.60804-5.900956-11.301505-14.963139-18.038941-18.335114-8.693465-4.214969-18.69095-6.322454-26.515069-5.47946-3.694723.421497-8.041456.842994-9.562812 1.053742-2.173367.210749-3.042713-.632245-4.781406-5.057962-6.302763-16.016882-24.124367-26.554304-44.336674-26.554304-4.998743 0-10.432159.421497-12.605525 1.053742l-3.694723 1.053743v-50.579626c0-55.6375888-.434673-58.7988154-7.172109-68.9147406-4.129396-6.3224533-9.997485-10.958919-18.908287-14.9631393-5.433416-2.5289813-8.476129-3.1612267-17.386931-3.3719751-6.520099 0-12.388188.4214969-15.213564 1.2644906z"/><path d="m156.742081 1.49560164c-54.666888 9.26624576-84.8944612 66.07236096-59.8120066 112.80647036 8.1464386 15.309449 7.9320586 15.712329 8.5751986-13.496489.643139-28.0001772 1.286279-31.6260994 7.932058-43.5110668 5.145119-9.2662457 17.364776-20.1440125 27.869394-25.1800156 38.374011-18.1296112 84.680081.8057605 94.970319 38.8779441 1.28628 4.834563 1.71504 12.2878476 1.71504 31.6260993v25.381456l3.644459-5.036003c9.003958-11.884967 14.363457-28.4030577 14.363457-44.1153874 0-38.676504-28.941294-70.90692397-69.673485-77.75588821-10.718998-1.611521-18.436676-1.41008088-29.584434.40288025z"/></g></g></svg>