<svg height="100" viewBox="0 0 100 100" width="100" xmlns="http://www.w3.org/2000/svg" xmlns:xlink="http://www.w3.org/1999/xlink"><radialGradient id="a" cx="50%" cy="100%" r="98.441406%"><stop offset="0" stop-color="#219764"/><stop offset="1" stop-color="#1a663f"/></radialGradient><g fill="none" fill-rule="evenodd"><rect fill="url(#a)" height="100" rx="10" width="100"/><g fill="#fff" fill-rule="nonzero" transform="translate(23 17)"><path d="m19.755681 6.15806133c-1.2768528.42149688-2.4722043 1.31717776-3.1513813 2.31823285-.7878453 1.21180354-.7606782.89568088-.7606782 14.77873442 0 12.434158-.0815012 16.3856913-.2988379 16.7281575-.1901695.2897791-.706344-.1580613-2.4450371-2.0811408-1.7658602-2.0021102-3.26004955-3.2139138-4.67273768-3.8988462-2.30920176-1.1064293-5.59641838-.3424662-7.25361022 1.6859875-1.16818442 1.422552-1.49418938 3.2139138-.84217947 4.3993738.3794436.6857089 5.44813861 7.342038 15.20608507 19.9689873l-.0000029.0000022c.9469651 1.225389 2.4082988 1.9428125 3.9569502 1.9426151 15.2879231-.0019486 23.3621876-.0613391 24.2227936-.1781717 2.6352067-.3688097 4.5097351-2.1338279 5.2704134-4.8999012.679177-2.5553249 1.1953515-12.8819985.9508478-19.5205744l-.1086684-3.4773492-.4346732-.8956809c-.5433416-1.0800858-1.5756906-2.0547973-2.716708-2.5553249-.706344-.3424662-1.0051819-.3688097-2.2277005-.3688097-.7878453 0-1.6028577.0526871-1.7930272.1053742-.3531721.1053742-.4075062.0526871-.6248429-.4478405-.3260049-.7376195-1.4126881-1.8703924-2.2548676-2.2918893-1.0866831-.5268711-2.3363688-.7903066-3.3143837-.6849324-.4618403.0526871-1.0051819.1053742-1.1953515.1317178-.2716708.0263435-.3803391-.0790307-.5976757-.6322453-.7878453-2.0021102-3.0155458-3.319288-5.5420842-3.319288-.6248429 0-1.3040198.0526871-1.5756906.1317178l-.4618404.1317178v-6.3224533c0-6.95469853-.0543341-7.34985186-.8965136-8.6143425-.5161745-.79030666-1.2496857-1.36986487-2.3635359-1.87039242-.679177-.31612266-1.0595161-.39515332-2.1733664-.42149688-.8150124 0-1.5485235.05268711-1.9016955.15806133z"/><path d="m19.5927602.18695021c-6.833361 1.15828071-10.61180772 8.25904511-7.4765009 14.10080869 1.0183048 1.9136812.9915073 1.9640413 1.0718998-1.687061.0803924-3.50002217.1607849-3.95326245.9915073-5.43888337.6431398-1.15828072 2.170597-2.51800156 3.4836742-3.14750195 4.7967515-2.26620141 10.5850102.10072006 11.8712899 4.85974301.160785.60432037.21438 1.53598091.21438 3.95326241v3.172682l.4555574-.6295004c1.1254947-1.4856209 1.7954321-3.5503822 1.7954321-5.51442341 0-4.83456299-3.6176617-8.86336549-8.7091856-9.71948602-1.3398747-.20144012-2.3045845-.17626011-3.6980542.05036004z"/></g></g></svg>